M48
; DRILL file {KiCad (5.1.4)-1} date 6/1/2020 8:19:08 PM
; FORMAT={-:-/ absolute / inch / decimal}
; #@! TF.CreationDate,2020-06-01T20:19:08-04:00
; #@! TF.GenerationSoftware,Kicad,Pcbnew,(5.1.4)-1
; #@! TF.FileFunction,Plated,1,2,PTH
FMAT,2
INCH
T1C0.0157
T2C0.0197
T3C0.0394
T4C0.0984
%
G90
G05
T1
X5.261Y-3.76
X5.499Y-3.643
X5.5Y-3.699
X5.592Y-4.028
X5.654Y-3.91
X5.689Y-3.858
X6.135Y-3.692
T2
X5.9602Y-3.84
X5.9818Y-3.7878
X5.9818Y-3.8922
X6.034Y-3.7662
X6.034Y-3.9138
X6.0862Y-3.7878
X6.0862Y-3.8922
X6.1078Y-3.84
T3
X6.417Y-3.713
X6.417Y-3.813
X6.417Y-3.913
X6.417Y-4.013
X5.15Y-3.792
X5.15Y-3.892
T4
X6.034Y-3.84
T0
M30
