G04 #@! TF.GenerationSoftware,KiCad,Pcbnew,(5.1.4)-1*
G04 #@! TF.CreationDate,2020-06-01T20:19:03-04:00*
G04 #@! TF.ProjectId,UniversalLM393,556e6976-6572-4736-916c-4c4d3339332e,rev?*
G04 #@! TF.SameCoordinates,Original*
G04 #@! TF.FileFunction,Copper,L1,Top*
G04 #@! TF.FilePolarity,Positive*
%FSLAX46Y46*%
G04 Gerber Fmt 4.6, Leading zero omitted, Abs format (unit mm)*
G04 Created by KiCad (PCBNEW (5.1.4)-1) date 2020-06-01 20:19:03*
%MOMM*%
%LPD*%
G04 APERTURE LIST*
%ADD10R,1.300000X1.600000*%
%ADD11R,2.000000X1.600000*%
%ADD12C,0.100000*%
%ADD13C,0.975000*%
%ADD14O,1.700000X1.700000*%
%ADD15R,1.700000X1.700000*%
%ADD16R,1.750000X0.550000*%
%ADD17C,0.800000*%
%ADD18C,5.000000*%
%ADD19C,0.250000*%
G04 APERTURE END LIST*
D10*
X134132000Y-98092600D03*
D11*
X135382000Y-100992600D03*
D10*
X136632000Y-98092600D03*
D12*
G36*
X140002342Y-98520574D02*
G01*
X140026003Y-98524084D01*
X140049207Y-98529896D01*
X140071729Y-98537954D01*
X140093353Y-98548182D01*
X140113870Y-98560479D01*
X140133083Y-98574729D01*
X140150807Y-98590793D01*
X140166871Y-98608517D01*
X140181121Y-98627730D01*
X140193418Y-98648247D01*
X140203646Y-98669871D01*
X140211704Y-98692393D01*
X140217516Y-98715597D01*
X140221026Y-98739258D01*
X140222200Y-98763150D01*
X140222200Y-99250650D01*
X140221026Y-99274542D01*
X140217516Y-99298203D01*
X140211704Y-99321407D01*
X140203646Y-99343929D01*
X140193418Y-99365553D01*
X140181121Y-99386070D01*
X140166871Y-99405283D01*
X140150807Y-99423007D01*
X140133083Y-99439071D01*
X140113870Y-99453321D01*
X140093353Y-99465618D01*
X140071729Y-99475846D01*
X140049207Y-99483904D01*
X140026003Y-99489716D01*
X140002342Y-99493226D01*
X139978450Y-99494400D01*
X139065950Y-99494400D01*
X139042058Y-99493226D01*
X139018397Y-99489716D01*
X138995193Y-99483904D01*
X138972671Y-99475846D01*
X138951047Y-99465618D01*
X138930530Y-99453321D01*
X138911317Y-99439071D01*
X138893593Y-99423007D01*
X138877529Y-99405283D01*
X138863279Y-99386070D01*
X138850982Y-99365553D01*
X138840754Y-99343929D01*
X138832696Y-99321407D01*
X138826884Y-99298203D01*
X138823374Y-99274542D01*
X138822200Y-99250650D01*
X138822200Y-98763150D01*
X138823374Y-98739258D01*
X138826884Y-98715597D01*
X138832696Y-98692393D01*
X138840754Y-98669871D01*
X138850982Y-98648247D01*
X138863279Y-98627730D01*
X138877529Y-98608517D01*
X138893593Y-98590793D01*
X138911317Y-98574729D01*
X138930530Y-98560479D01*
X138951047Y-98548182D01*
X138972671Y-98537954D01*
X138995193Y-98529896D01*
X139018397Y-98524084D01*
X139042058Y-98520574D01*
X139065950Y-98519400D01*
X139978450Y-98519400D01*
X140002342Y-98520574D01*
X140002342Y-98520574D01*
G37*
D13*
X139522200Y-99006900D03*
D12*
G36*
X140002342Y-96645574D02*
G01*
X140026003Y-96649084D01*
X140049207Y-96654896D01*
X140071729Y-96662954D01*
X140093353Y-96673182D01*
X140113870Y-96685479D01*
X140133083Y-96699729D01*
X140150807Y-96715793D01*
X140166871Y-96733517D01*
X140181121Y-96752730D01*
X140193418Y-96773247D01*
X140203646Y-96794871D01*
X140211704Y-96817393D01*
X140217516Y-96840597D01*
X140221026Y-96864258D01*
X140222200Y-96888150D01*
X140222200Y-97375650D01*
X140221026Y-97399542D01*
X140217516Y-97423203D01*
X140211704Y-97446407D01*
X140203646Y-97468929D01*
X140193418Y-97490553D01*
X140181121Y-97511070D01*
X140166871Y-97530283D01*
X140150807Y-97548007D01*
X140133083Y-97564071D01*
X140113870Y-97578321D01*
X140093353Y-97590618D01*
X140071729Y-97600846D01*
X140049207Y-97608904D01*
X140026003Y-97614716D01*
X140002342Y-97618226D01*
X139978450Y-97619400D01*
X139065950Y-97619400D01*
X139042058Y-97618226D01*
X139018397Y-97614716D01*
X138995193Y-97608904D01*
X138972671Y-97600846D01*
X138951047Y-97590618D01*
X138930530Y-97578321D01*
X138911317Y-97564071D01*
X138893593Y-97548007D01*
X138877529Y-97530283D01*
X138863279Y-97511070D01*
X138850982Y-97490553D01*
X138840754Y-97468929D01*
X138832696Y-97446407D01*
X138826884Y-97423203D01*
X138823374Y-97399542D01*
X138822200Y-97375650D01*
X138822200Y-96888150D01*
X138823374Y-96864258D01*
X138826884Y-96840597D01*
X138832696Y-96817393D01*
X138840754Y-96794871D01*
X138850982Y-96773247D01*
X138863279Y-96752730D01*
X138877529Y-96733517D01*
X138893593Y-96715793D01*
X138911317Y-96699729D01*
X138930530Y-96685479D01*
X138951047Y-96673182D01*
X138972671Y-96662954D01*
X138995193Y-96654896D01*
X139018397Y-96649084D01*
X139042058Y-96645574D01*
X139065950Y-96644400D01*
X139978450Y-96644400D01*
X140002342Y-96645574D01*
X140002342Y-96645574D01*
G37*
D13*
X139522200Y-97131900D03*
D14*
X130810000Y-98856800D03*
D15*
X130810000Y-96316800D03*
D16*
X149292800Y-96164400D03*
X149292800Y-97434400D03*
X149292800Y-98704400D03*
X149292800Y-99974400D03*
X141892800Y-99974400D03*
X141892800Y-98704400D03*
X141892800Y-97434400D03*
X141892800Y-96164400D03*
D12*
G36*
X147592242Y-92392174D02*
G01*
X147615903Y-92395684D01*
X147639107Y-92401496D01*
X147661629Y-92409554D01*
X147683253Y-92419782D01*
X147703770Y-92432079D01*
X147722983Y-92446329D01*
X147740707Y-92462393D01*
X147756771Y-92480117D01*
X147771021Y-92499330D01*
X147783318Y-92519847D01*
X147793546Y-92541471D01*
X147801604Y-92563993D01*
X147807416Y-92587197D01*
X147810926Y-92610858D01*
X147812100Y-92634750D01*
X147812100Y-93547250D01*
X147810926Y-93571142D01*
X147807416Y-93594803D01*
X147801604Y-93618007D01*
X147793546Y-93640529D01*
X147783318Y-93662153D01*
X147771021Y-93682670D01*
X147756771Y-93701883D01*
X147740707Y-93719607D01*
X147722983Y-93735671D01*
X147703770Y-93749921D01*
X147683253Y-93762218D01*
X147661629Y-93772446D01*
X147639107Y-93780504D01*
X147615903Y-93786316D01*
X147592242Y-93789826D01*
X147568350Y-93791000D01*
X147080850Y-93791000D01*
X147056958Y-93789826D01*
X147033297Y-93786316D01*
X147010093Y-93780504D01*
X146987571Y-93772446D01*
X146965947Y-93762218D01*
X146945430Y-93749921D01*
X146926217Y-93735671D01*
X146908493Y-93719607D01*
X146892429Y-93701883D01*
X146878179Y-93682670D01*
X146865882Y-93662153D01*
X146855654Y-93640529D01*
X146847596Y-93618007D01*
X146841784Y-93594803D01*
X146838274Y-93571142D01*
X146837100Y-93547250D01*
X146837100Y-92634750D01*
X146838274Y-92610858D01*
X146841784Y-92587197D01*
X146847596Y-92563993D01*
X146855654Y-92541471D01*
X146865882Y-92519847D01*
X146878179Y-92499330D01*
X146892429Y-92480117D01*
X146908493Y-92462393D01*
X146926217Y-92446329D01*
X146945430Y-92432079D01*
X146965947Y-92419782D01*
X146987571Y-92409554D01*
X147010093Y-92401496D01*
X147033297Y-92395684D01*
X147056958Y-92392174D01*
X147080850Y-92391000D01*
X147568350Y-92391000D01*
X147592242Y-92392174D01*
X147592242Y-92392174D01*
G37*
D13*
X147324600Y-93091000D03*
D12*
G36*
X149467242Y-92392174D02*
G01*
X149490903Y-92395684D01*
X149514107Y-92401496D01*
X149536629Y-92409554D01*
X149558253Y-92419782D01*
X149578770Y-92432079D01*
X149597983Y-92446329D01*
X149615707Y-92462393D01*
X149631771Y-92480117D01*
X149646021Y-92499330D01*
X149658318Y-92519847D01*
X149668546Y-92541471D01*
X149676604Y-92563993D01*
X149682416Y-92587197D01*
X149685926Y-92610858D01*
X149687100Y-92634750D01*
X149687100Y-93547250D01*
X149685926Y-93571142D01*
X149682416Y-93594803D01*
X149676604Y-93618007D01*
X149668546Y-93640529D01*
X149658318Y-93662153D01*
X149646021Y-93682670D01*
X149631771Y-93701883D01*
X149615707Y-93719607D01*
X149597983Y-93735671D01*
X149578770Y-93749921D01*
X149558253Y-93762218D01*
X149536629Y-93772446D01*
X149514107Y-93780504D01*
X149490903Y-93786316D01*
X149467242Y-93789826D01*
X149443350Y-93791000D01*
X148955850Y-93791000D01*
X148931958Y-93789826D01*
X148908297Y-93786316D01*
X148885093Y-93780504D01*
X148862571Y-93772446D01*
X148840947Y-93762218D01*
X148820430Y-93749921D01*
X148801217Y-93735671D01*
X148783493Y-93719607D01*
X148767429Y-93701883D01*
X148753179Y-93682670D01*
X148740882Y-93662153D01*
X148730654Y-93640529D01*
X148722596Y-93618007D01*
X148716784Y-93594803D01*
X148713274Y-93571142D01*
X148712100Y-93547250D01*
X148712100Y-92634750D01*
X148713274Y-92610858D01*
X148716784Y-92587197D01*
X148722596Y-92563993D01*
X148730654Y-92541471D01*
X148740882Y-92519847D01*
X148753179Y-92499330D01*
X148767429Y-92480117D01*
X148783493Y-92462393D01*
X148801217Y-92446329D01*
X148820430Y-92432079D01*
X148840947Y-92419782D01*
X148862571Y-92409554D01*
X148885093Y-92401496D01*
X148908297Y-92395684D01*
X148931958Y-92392174D01*
X148955850Y-92391000D01*
X149443350Y-92391000D01*
X149467242Y-92392174D01*
X149467242Y-92392174D01*
G37*
D13*
X149199600Y-93091000D03*
D12*
G36*
X148781442Y-102348974D02*
G01*
X148805103Y-102352484D01*
X148828307Y-102358296D01*
X148850829Y-102366354D01*
X148872453Y-102376582D01*
X148892970Y-102388879D01*
X148912183Y-102403129D01*
X148929907Y-102419193D01*
X148945971Y-102436917D01*
X148960221Y-102456130D01*
X148972518Y-102476647D01*
X148982746Y-102498271D01*
X148990804Y-102520793D01*
X148996616Y-102543997D01*
X149000126Y-102567658D01*
X149001300Y-102591550D01*
X149001300Y-103504050D01*
X149000126Y-103527942D01*
X148996616Y-103551603D01*
X148990804Y-103574807D01*
X148982746Y-103597329D01*
X148972518Y-103618953D01*
X148960221Y-103639470D01*
X148945971Y-103658683D01*
X148929907Y-103676407D01*
X148912183Y-103692471D01*
X148892970Y-103706721D01*
X148872453Y-103719018D01*
X148850829Y-103729246D01*
X148828307Y-103737304D01*
X148805103Y-103743116D01*
X148781442Y-103746626D01*
X148757550Y-103747800D01*
X148270050Y-103747800D01*
X148246158Y-103746626D01*
X148222497Y-103743116D01*
X148199293Y-103737304D01*
X148176771Y-103729246D01*
X148155147Y-103719018D01*
X148134630Y-103706721D01*
X148115417Y-103692471D01*
X148097693Y-103676407D01*
X148081629Y-103658683D01*
X148067379Y-103639470D01*
X148055082Y-103618953D01*
X148044854Y-103597329D01*
X148036796Y-103574807D01*
X148030984Y-103551603D01*
X148027474Y-103527942D01*
X148026300Y-103504050D01*
X148026300Y-102591550D01*
X148027474Y-102567658D01*
X148030984Y-102543997D01*
X148036796Y-102520793D01*
X148044854Y-102498271D01*
X148055082Y-102476647D01*
X148067379Y-102456130D01*
X148081629Y-102436917D01*
X148097693Y-102419193D01*
X148115417Y-102403129D01*
X148134630Y-102388879D01*
X148155147Y-102376582D01*
X148176771Y-102366354D01*
X148199293Y-102358296D01*
X148222497Y-102352484D01*
X148246158Y-102348974D01*
X148270050Y-102347800D01*
X148757550Y-102347800D01*
X148781442Y-102348974D01*
X148781442Y-102348974D01*
G37*
D13*
X148513800Y-103047800D03*
D12*
G36*
X146906442Y-102348974D02*
G01*
X146930103Y-102352484D01*
X146953307Y-102358296D01*
X146975829Y-102366354D01*
X146997453Y-102376582D01*
X147017970Y-102388879D01*
X147037183Y-102403129D01*
X147054907Y-102419193D01*
X147070971Y-102436917D01*
X147085221Y-102456130D01*
X147097518Y-102476647D01*
X147107746Y-102498271D01*
X147115804Y-102520793D01*
X147121616Y-102543997D01*
X147125126Y-102567658D01*
X147126300Y-102591550D01*
X147126300Y-103504050D01*
X147125126Y-103527942D01*
X147121616Y-103551603D01*
X147115804Y-103574807D01*
X147107746Y-103597329D01*
X147097518Y-103618953D01*
X147085221Y-103639470D01*
X147070971Y-103658683D01*
X147054907Y-103676407D01*
X147037183Y-103692471D01*
X147017970Y-103706721D01*
X146997453Y-103719018D01*
X146975829Y-103729246D01*
X146953307Y-103737304D01*
X146930103Y-103743116D01*
X146906442Y-103746626D01*
X146882550Y-103747800D01*
X146395050Y-103747800D01*
X146371158Y-103746626D01*
X146347497Y-103743116D01*
X146324293Y-103737304D01*
X146301771Y-103729246D01*
X146280147Y-103719018D01*
X146259630Y-103706721D01*
X146240417Y-103692471D01*
X146222693Y-103676407D01*
X146206629Y-103658683D01*
X146192379Y-103639470D01*
X146180082Y-103618953D01*
X146169854Y-103597329D01*
X146161796Y-103574807D01*
X146155984Y-103551603D01*
X146152474Y-103527942D01*
X146151300Y-103504050D01*
X146151300Y-102591550D01*
X146152474Y-102567658D01*
X146155984Y-102543997D01*
X146161796Y-102520793D01*
X146169854Y-102498271D01*
X146180082Y-102476647D01*
X146192379Y-102456130D01*
X146206629Y-102436917D01*
X146222693Y-102419193D01*
X146240417Y-102403129D01*
X146259630Y-102388879D01*
X146280147Y-102376582D01*
X146301771Y-102366354D01*
X146324293Y-102358296D01*
X146347497Y-102352484D01*
X146371158Y-102348974D01*
X146395050Y-102347800D01*
X146882550Y-102347800D01*
X146906442Y-102348974D01*
X146906442Y-102348974D01*
G37*
D13*
X146638800Y-103047800D03*
D12*
G36*
X144133242Y-92493774D02*
G01*
X144156903Y-92497284D01*
X144180107Y-92503096D01*
X144202629Y-92511154D01*
X144224253Y-92521382D01*
X144244770Y-92533679D01*
X144263983Y-92547929D01*
X144281707Y-92563993D01*
X144297771Y-92581717D01*
X144312021Y-92600930D01*
X144324318Y-92621447D01*
X144334546Y-92643071D01*
X144342604Y-92665593D01*
X144348416Y-92688797D01*
X144351926Y-92712458D01*
X144353100Y-92736350D01*
X144353100Y-93648850D01*
X144351926Y-93672742D01*
X144348416Y-93696403D01*
X144342604Y-93719607D01*
X144334546Y-93742129D01*
X144324318Y-93763753D01*
X144312021Y-93784270D01*
X144297771Y-93803483D01*
X144281707Y-93821207D01*
X144263983Y-93837271D01*
X144244770Y-93851521D01*
X144224253Y-93863818D01*
X144202629Y-93874046D01*
X144180107Y-93882104D01*
X144156903Y-93887916D01*
X144133242Y-93891426D01*
X144109350Y-93892600D01*
X143621850Y-93892600D01*
X143597958Y-93891426D01*
X143574297Y-93887916D01*
X143551093Y-93882104D01*
X143528571Y-93874046D01*
X143506947Y-93863818D01*
X143486430Y-93851521D01*
X143467217Y-93837271D01*
X143449493Y-93821207D01*
X143433429Y-93803483D01*
X143419179Y-93784270D01*
X143406882Y-93763753D01*
X143396654Y-93742129D01*
X143388596Y-93719607D01*
X143382784Y-93696403D01*
X143379274Y-93672742D01*
X143378100Y-93648850D01*
X143378100Y-92736350D01*
X143379274Y-92712458D01*
X143382784Y-92688797D01*
X143388596Y-92665593D01*
X143396654Y-92643071D01*
X143406882Y-92621447D01*
X143419179Y-92600930D01*
X143433429Y-92581717D01*
X143449493Y-92563993D01*
X143467217Y-92547929D01*
X143486430Y-92533679D01*
X143506947Y-92521382D01*
X143528571Y-92511154D01*
X143551093Y-92503096D01*
X143574297Y-92497284D01*
X143597958Y-92493774D01*
X143621850Y-92492600D01*
X144109350Y-92492600D01*
X144133242Y-92493774D01*
X144133242Y-92493774D01*
G37*
D13*
X143865600Y-93192600D03*
D12*
G36*
X142258242Y-92493774D02*
G01*
X142281903Y-92497284D01*
X142305107Y-92503096D01*
X142327629Y-92511154D01*
X142349253Y-92521382D01*
X142369770Y-92533679D01*
X142388983Y-92547929D01*
X142406707Y-92563993D01*
X142422771Y-92581717D01*
X142437021Y-92600930D01*
X142449318Y-92621447D01*
X142459546Y-92643071D01*
X142467604Y-92665593D01*
X142473416Y-92688797D01*
X142476926Y-92712458D01*
X142478100Y-92736350D01*
X142478100Y-93648850D01*
X142476926Y-93672742D01*
X142473416Y-93696403D01*
X142467604Y-93719607D01*
X142459546Y-93742129D01*
X142449318Y-93763753D01*
X142437021Y-93784270D01*
X142422771Y-93803483D01*
X142406707Y-93821207D01*
X142388983Y-93837271D01*
X142369770Y-93851521D01*
X142349253Y-93863818D01*
X142327629Y-93874046D01*
X142305107Y-93882104D01*
X142281903Y-93887916D01*
X142258242Y-93891426D01*
X142234350Y-93892600D01*
X141746850Y-93892600D01*
X141722958Y-93891426D01*
X141699297Y-93887916D01*
X141676093Y-93882104D01*
X141653571Y-93874046D01*
X141631947Y-93863818D01*
X141611430Y-93851521D01*
X141592217Y-93837271D01*
X141574493Y-93821207D01*
X141558429Y-93803483D01*
X141544179Y-93784270D01*
X141531882Y-93763753D01*
X141521654Y-93742129D01*
X141513596Y-93719607D01*
X141507784Y-93696403D01*
X141504274Y-93672742D01*
X141503100Y-93648850D01*
X141503100Y-92736350D01*
X141504274Y-92712458D01*
X141507784Y-92688797D01*
X141513596Y-92665593D01*
X141521654Y-92643071D01*
X141531882Y-92621447D01*
X141544179Y-92600930D01*
X141558429Y-92581717D01*
X141574493Y-92563993D01*
X141592217Y-92547929D01*
X141611430Y-92533679D01*
X141631947Y-92521382D01*
X141653571Y-92511154D01*
X141676093Y-92503096D01*
X141699297Y-92497284D01*
X141722958Y-92493774D01*
X141746850Y-92492600D01*
X142234350Y-92492600D01*
X142258242Y-92493774D01*
X142258242Y-92493774D01*
G37*
D13*
X141990600Y-93192600D03*
D12*
G36*
X138515242Y-94424174D02*
G01*
X138538903Y-94427684D01*
X138562107Y-94433496D01*
X138584629Y-94441554D01*
X138606253Y-94451782D01*
X138626770Y-94464079D01*
X138645983Y-94478329D01*
X138663707Y-94494393D01*
X138679771Y-94512117D01*
X138694021Y-94531330D01*
X138706318Y-94551847D01*
X138716546Y-94573471D01*
X138724604Y-94595993D01*
X138730416Y-94619197D01*
X138733926Y-94642858D01*
X138735100Y-94666750D01*
X138735100Y-95579250D01*
X138733926Y-95603142D01*
X138730416Y-95626803D01*
X138724604Y-95650007D01*
X138716546Y-95672529D01*
X138706318Y-95694153D01*
X138694021Y-95714670D01*
X138679771Y-95733883D01*
X138663707Y-95751607D01*
X138645983Y-95767671D01*
X138626770Y-95781921D01*
X138606253Y-95794218D01*
X138584629Y-95804446D01*
X138562107Y-95812504D01*
X138538903Y-95818316D01*
X138515242Y-95821826D01*
X138491350Y-95823000D01*
X138003850Y-95823000D01*
X137979958Y-95821826D01*
X137956297Y-95818316D01*
X137933093Y-95812504D01*
X137910571Y-95804446D01*
X137888947Y-95794218D01*
X137868430Y-95781921D01*
X137849217Y-95767671D01*
X137831493Y-95751607D01*
X137815429Y-95733883D01*
X137801179Y-95714670D01*
X137788882Y-95694153D01*
X137778654Y-95672529D01*
X137770596Y-95650007D01*
X137764784Y-95626803D01*
X137761274Y-95603142D01*
X137760100Y-95579250D01*
X137760100Y-94666750D01*
X137761274Y-94642858D01*
X137764784Y-94619197D01*
X137770596Y-94595993D01*
X137778654Y-94573471D01*
X137788882Y-94551847D01*
X137801179Y-94531330D01*
X137815429Y-94512117D01*
X137831493Y-94494393D01*
X137849217Y-94478329D01*
X137868430Y-94464079D01*
X137888947Y-94451782D01*
X137910571Y-94441554D01*
X137933093Y-94433496D01*
X137956297Y-94427684D01*
X137979958Y-94424174D01*
X138003850Y-94423000D01*
X138491350Y-94423000D01*
X138515242Y-94424174D01*
X138515242Y-94424174D01*
G37*
D13*
X138247600Y-95123000D03*
D12*
G36*
X136640242Y-94424174D02*
G01*
X136663903Y-94427684D01*
X136687107Y-94433496D01*
X136709629Y-94441554D01*
X136731253Y-94451782D01*
X136751770Y-94464079D01*
X136770983Y-94478329D01*
X136788707Y-94494393D01*
X136804771Y-94512117D01*
X136819021Y-94531330D01*
X136831318Y-94551847D01*
X136841546Y-94573471D01*
X136849604Y-94595993D01*
X136855416Y-94619197D01*
X136858926Y-94642858D01*
X136860100Y-94666750D01*
X136860100Y-95579250D01*
X136858926Y-95603142D01*
X136855416Y-95626803D01*
X136849604Y-95650007D01*
X136841546Y-95672529D01*
X136831318Y-95694153D01*
X136819021Y-95714670D01*
X136804771Y-95733883D01*
X136788707Y-95751607D01*
X136770983Y-95767671D01*
X136751770Y-95781921D01*
X136731253Y-95794218D01*
X136709629Y-95804446D01*
X136687107Y-95812504D01*
X136663903Y-95818316D01*
X136640242Y-95821826D01*
X136616350Y-95823000D01*
X136128850Y-95823000D01*
X136104958Y-95821826D01*
X136081297Y-95818316D01*
X136058093Y-95812504D01*
X136035571Y-95804446D01*
X136013947Y-95794218D01*
X135993430Y-95781921D01*
X135974217Y-95767671D01*
X135956493Y-95751607D01*
X135940429Y-95733883D01*
X135926179Y-95714670D01*
X135913882Y-95694153D01*
X135903654Y-95672529D01*
X135895596Y-95650007D01*
X135889784Y-95626803D01*
X135886274Y-95603142D01*
X135885100Y-95579250D01*
X135885100Y-94666750D01*
X135886274Y-94642858D01*
X135889784Y-94619197D01*
X135895596Y-94595993D01*
X135903654Y-94573471D01*
X135913882Y-94551847D01*
X135926179Y-94531330D01*
X135940429Y-94512117D01*
X135956493Y-94494393D01*
X135974217Y-94478329D01*
X135993430Y-94464079D01*
X136013947Y-94451782D01*
X136035571Y-94441554D01*
X136058093Y-94433496D01*
X136081297Y-94427684D01*
X136104958Y-94424174D01*
X136128850Y-94423000D01*
X136616350Y-94423000D01*
X136640242Y-94424174D01*
X136640242Y-94424174D01*
G37*
D13*
X136372600Y-95123000D03*
D14*
X162991800Y-101930200D03*
X162991800Y-99390200D03*
X162991800Y-96850200D03*
D15*
X162991800Y-94310200D03*
D17*
X154589425Y-96210175D03*
X153263600Y-95661000D03*
X151937775Y-96210175D03*
X151388600Y-97536000D03*
X151937775Y-98861825D03*
X153263600Y-99411000D03*
X154589425Y-98861825D03*
X155138600Y-97536000D03*
D18*
X153263600Y-97536000D03*
D12*
G36*
X158463442Y-101967974D02*
G01*
X158487103Y-101971484D01*
X158510307Y-101977296D01*
X158532829Y-101985354D01*
X158554453Y-101995582D01*
X158574970Y-102007879D01*
X158594183Y-102022129D01*
X158611907Y-102038193D01*
X158627971Y-102055917D01*
X158642221Y-102075130D01*
X158654518Y-102095647D01*
X158664746Y-102117271D01*
X158672804Y-102139793D01*
X158678616Y-102162997D01*
X158682126Y-102186658D01*
X158683300Y-102210550D01*
X158683300Y-103123050D01*
X158682126Y-103146942D01*
X158678616Y-103170603D01*
X158672804Y-103193807D01*
X158664746Y-103216329D01*
X158654518Y-103237953D01*
X158642221Y-103258470D01*
X158627971Y-103277683D01*
X158611907Y-103295407D01*
X158594183Y-103311471D01*
X158574970Y-103325721D01*
X158554453Y-103338018D01*
X158532829Y-103348246D01*
X158510307Y-103356304D01*
X158487103Y-103362116D01*
X158463442Y-103365626D01*
X158439550Y-103366800D01*
X157952050Y-103366800D01*
X157928158Y-103365626D01*
X157904497Y-103362116D01*
X157881293Y-103356304D01*
X157858771Y-103348246D01*
X157837147Y-103338018D01*
X157816630Y-103325721D01*
X157797417Y-103311471D01*
X157779693Y-103295407D01*
X157763629Y-103277683D01*
X157749379Y-103258470D01*
X157737082Y-103237953D01*
X157726854Y-103216329D01*
X157718796Y-103193807D01*
X157712984Y-103170603D01*
X157709474Y-103146942D01*
X157708300Y-103123050D01*
X157708300Y-102210550D01*
X157709474Y-102186658D01*
X157712984Y-102162997D01*
X157718796Y-102139793D01*
X157726854Y-102117271D01*
X157737082Y-102095647D01*
X157749379Y-102075130D01*
X157763629Y-102055917D01*
X157779693Y-102038193D01*
X157797417Y-102022129D01*
X157816630Y-102007879D01*
X157837147Y-101995582D01*
X157858771Y-101985354D01*
X157881293Y-101977296D01*
X157904497Y-101971484D01*
X157928158Y-101967974D01*
X157952050Y-101966800D01*
X158439550Y-101966800D01*
X158463442Y-101967974D01*
X158463442Y-101967974D01*
G37*
D13*
X158195800Y-102666800D03*
D12*
G36*
X160338442Y-101967974D02*
G01*
X160362103Y-101971484D01*
X160385307Y-101977296D01*
X160407829Y-101985354D01*
X160429453Y-101995582D01*
X160449970Y-102007879D01*
X160469183Y-102022129D01*
X160486907Y-102038193D01*
X160502971Y-102055917D01*
X160517221Y-102075130D01*
X160529518Y-102095647D01*
X160539746Y-102117271D01*
X160547804Y-102139793D01*
X160553616Y-102162997D01*
X160557126Y-102186658D01*
X160558300Y-102210550D01*
X160558300Y-103123050D01*
X160557126Y-103146942D01*
X160553616Y-103170603D01*
X160547804Y-103193807D01*
X160539746Y-103216329D01*
X160529518Y-103237953D01*
X160517221Y-103258470D01*
X160502971Y-103277683D01*
X160486907Y-103295407D01*
X160469183Y-103311471D01*
X160449970Y-103325721D01*
X160429453Y-103338018D01*
X160407829Y-103348246D01*
X160385307Y-103356304D01*
X160362103Y-103362116D01*
X160338442Y-103365626D01*
X160314550Y-103366800D01*
X159827050Y-103366800D01*
X159803158Y-103365626D01*
X159779497Y-103362116D01*
X159756293Y-103356304D01*
X159733771Y-103348246D01*
X159712147Y-103338018D01*
X159691630Y-103325721D01*
X159672417Y-103311471D01*
X159654693Y-103295407D01*
X159638629Y-103277683D01*
X159624379Y-103258470D01*
X159612082Y-103237953D01*
X159601854Y-103216329D01*
X159593796Y-103193807D01*
X159587984Y-103170603D01*
X159584474Y-103146942D01*
X159583300Y-103123050D01*
X159583300Y-102210550D01*
X159584474Y-102186658D01*
X159587984Y-102162997D01*
X159593796Y-102139793D01*
X159601854Y-102117271D01*
X159612082Y-102095647D01*
X159624379Y-102075130D01*
X159638629Y-102055917D01*
X159654693Y-102038193D01*
X159672417Y-102022129D01*
X159691630Y-102007879D01*
X159712147Y-101995582D01*
X159733771Y-101985354D01*
X159756293Y-101977296D01*
X159779497Y-101971484D01*
X159803158Y-101967974D01*
X159827050Y-101966800D01*
X160314550Y-101966800D01*
X160338442Y-101967974D01*
X160338442Y-101967974D01*
G37*
D13*
X160070800Y-102666800D03*
D12*
G36*
X160564742Y-92087374D02*
G01*
X160588403Y-92090884D01*
X160611607Y-92096696D01*
X160634129Y-92104754D01*
X160655753Y-92114982D01*
X160676270Y-92127279D01*
X160695483Y-92141529D01*
X160713207Y-92157593D01*
X160729271Y-92175317D01*
X160743521Y-92194530D01*
X160755818Y-92215047D01*
X160766046Y-92236671D01*
X160774104Y-92259193D01*
X160779916Y-92282397D01*
X160783426Y-92306058D01*
X160784600Y-92329950D01*
X160784600Y-93242450D01*
X160783426Y-93266342D01*
X160779916Y-93290003D01*
X160774104Y-93313207D01*
X160766046Y-93335729D01*
X160755818Y-93357353D01*
X160743521Y-93377870D01*
X160729271Y-93397083D01*
X160713207Y-93414807D01*
X160695483Y-93430871D01*
X160676270Y-93445121D01*
X160655753Y-93457418D01*
X160634129Y-93467646D01*
X160611607Y-93475704D01*
X160588403Y-93481516D01*
X160564742Y-93485026D01*
X160540850Y-93486200D01*
X160053350Y-93486200D01*
X160029458Y-93485026D01*
X160005797Y-93481516D01*
X159982593Y-93475704D01*
X159960071Y-93467646D01*
X159938447Y-93457418D01*
X159917930Y-93445121D01*
X159898717Y-93430871D01*
X159880993Y-93414807D01*
X159864929Y-93397083D01*
X159850679Y-93377870D01*
X159838382Y-93357353D01*
X159828154Y-93335729D01*
X159820096Y-93313207D01*
X159814284Y-93290003D01*
X159810774Y-93266342D01*
X159809600Y-93242450D01*
X159809600Y-92329950D01*
X159810774Y-92306058D01*
X159814284Y-92282397D01*
X159820096Y-92259193D01*
X159828154Y-92236671D01*
X159838382Y-92215047D01*
X159850679Y-92194530D01*
X159864929Y-92175317D01*
X159880993Y-92157593D01*
X159898717Y-92141529D01*
X159917930Y-92127279D01*
X159938447Y-92114982D01*
X159960071Y-92104754D01*
X159982593Y-92096696D01*
X160005797Y-92090884D01*
X160029458Y-92087374D01*
X160053350Y-92086200D01*
X160540850Y-92086200D01*
X160564742Y-92087374D01*
X160564742Y-92087374D01*
G37*
D13*
X160297100Y-92786200D03*
D12*
G36*
X158689742Y-92087374D02*
G01*
X158713403Y-92090884D01*
X158736607Y-92096696D01*
X158759129Y-92104754D01*
X158780753Y-92114982D01*
X158801270Y-92127279D01*
X158820483Y-92141529D01*
X158838207Y-92157593D01*
X158854271Y-92175317D01*
X158868521Y-92194530D01*
X158880818Y-92215047D01*
X158891046Y-92236671D01*
X158899104Y-92259193D01*
X158904916Y-92282397D01*
X158908426Y-92306058D01*
X158909600Y-92329950D01*
X158909600Y-93242450D01*
X158908426Y-93266342D01*
X158904916Y-93290003D01*
X158899104Y-93313207D01*
X158891046Y-93335729D01*
X158880818Y-93357353D01*
X158868521Y-93377870D01*
X158854271Y-93397083D01*
X158838207Y-93414807D01*
X158820483Y-93430871D01*
X158801270Y-93445121D01*
X158780753Y-93457418D01*
X158759129Y-93467646D01*
X158736607Y-93475704D01*
X158713403Y-93481516D01*
X158689742Y-93485026D01*
X158665850Y-93486200D01*
X158178350Y-93486200D01*
X158154458Y-93485026D01*
X158130797Y-93481516D01*
X158107593Y-93475704D01*
X158085071Y-93467646D01*
X158063447Y-93457418D01*
X158042930Y-93445121D01*
X158023717Y-93430871D01*
X158005993Y-93414807D01*
X157989929Y-93397083D01*
X157975679Y-93377870D01*
X157963382Y-93357353D01*
X157953154Y-93335729D01*
X157945096Y-93313207D01*
X157939284Y-93290003D01*
X157935774Y-93266342D01*
X157934600Y-93242450D01*
X157934600Y-92329950D01*
X157935774Y-92306058D01*
X157939284Y-92282397D01*
X157945096Y-92259193D01*
X157953154Y-92236671D01*
X157963382Y-92215047D01*
X157975679Y-92194530D01*
X157989929Y-92175317D01*
X158005993Y-92157593D01*
X158023717Y-92141529D01*
X158042930Y-92127279D01*
X158063447Y-92114982D01*
X158085071Y-92104754D01*
X158107593Y-92096696D01*
X158130797Y-92090884D01*
X158154458Y-92087374D01*
X158178350Y-92086200D01*
X158665850Y-92086200D01*
X158689742Y-92087374D01*
X158689742Y-92087374D01*
G37*
D13*
X158422100Y-92786200D03*
D12*
G36*
X159941342Y-97783974D02*
G01*
X159965003Y-97787484D01*
X159988207Y-97793296D01*
X160010729Y-97801354D01*
X160032353Y-97811582D01*
X160052870Y-97823879D01*
X160072083Y-97838129D01*
X160089807Y-97854193D01*
X160105871Y-97871917D01*
X160120121Y-97891130D01*
X160132418Y-97911647D01*
X160142646Y-97933271D01*
X160150704Y-97955793D01*
X160156516Y-97978997D01*
X160160026Y-98002658D01*
X160161200Y-98026550D01*
X160161200Y-98514050D01*
X160160026Y-98537942D01*
X160156516Y-98561603D01*
X160150704Y-98584807D01*
X160142646Y-98607329D01*
X160132418Y-98628953D01*
X160120121Y-98649470D01*
X160105871Y-98668683D01*
X160089807Y-98686407D01*
X160072083Y-98702471D01*
X160052870Y-98716721D01*
X160032353Y-98729018D01*
X160010729Y-98739246D01*
X159988207Y-98747304D01*
X159965003Y-98753116D01*
X159941342Y-98756626D01*
X159917450Y-98757800D01*
X159004950Y-98757800D01*
X158981058Y-98756626D01*
X158957397Y-98753116D01*
X158934193Y-98747304D01*
X158911671Y-98739246D01*
X158890047Y-98729018D01*
X158869530Y-98716721D01*
X158850317Y-98702471D01*
X158832593Y-98686407D01*
X158816529Y-98668683D01*
X158802279Y-98649470D01*
X158789982Y-98628953D01*
X158779754Y-98607329D01*
X158771696Y-98584807D01*
X158765884Y-98561603D01*
X158762374Y-98537942D01*
X158761200Y-98514050D01*
X158761200Y-98026550D01*
X158762374Y-98002658D01*
X158765884Y-97978997D01*
X158771696Y-97955793D01*
X158779754Y-97933271D01*
X158789982Y-97911647D01*
X158802279Y-97891130D01*
X158816529Y-97871917D01*
X158832593Y-97854193D01*
X158850317Y-97838129D01*
X158869530Y-97823879D01*
X158890047Y-97811582D01*
X158911671Y-97801354D01*
X158934193Y-97793296D01*
X158957397Y-97787484D01*
X158981058Y-97783974D01*
X159004950Y-97782800D01*
X159917450Y-97782800D01*
X159941342Y-97783974D01*
X159941342Y-97783974D01*
G37*
D13*
X159461200Y-98270300D03*
D12*
G36*
X159941342Y-95908974D02*
G01*
X159965003Y-95912484D01*
X159988207Y-95918296D01*
X160010729Y-95926354D01*
X160032353Y-95936582D01*
X160052870Y-95948879D01*
X160072083Y-95963129D01*
X160089807Y-95979193D01*
X160105871Y-95996917D01*
X160120121Y-96016130D01*
X160132418Y-96036647D01*
X160142646Y-96058271D01*
X160150704Y-96080793D01*
X160156516Y-96103997D01*
X160160026Y-96127658D01*
X160161200Y-96151550D01*
X160161200Y-96639050D01*
X160160026Y-96662942D01*
X160156516Y-96686603D01*
X160150704Y-96709807D01*
X160142646Y-96732329D01*
X160132418Y-96753953D01*
X160120121Y-96774470D01*
X160105871Y-96793683D01*
X160089807Y-96811407D01*
X160072083Y-96827471D01*
X160052870Y-96841721D01*
X160032353Y-96854018D01*
X160010729Y-96864246D01*
X159988207Y-96872304D01*
X159965003Y-96878116D01*
X159941342Y-96881626D01*
X159917450Y-96882800D01*
X159004950Y-96882800D01*
X158981058Y-96881626D01*
X158957397Y-96878116D01*
X158934193Y-96872304D01*
X158911671Y-96864246D01*
X158890047Y-96854018D01*
X158869530Y-96841721D01*
X158850317Y-96827471D01*
X158832593Y-96811407D01*
X158816529Y-96793683D01*
X158802279Y-96774470D01*
X158789982Y-96753953D01*
X158779754Y-96732329D01*
X158771696Y-96709807D01*
X158765884Y-96686603D01*
X158762374Y-96662942D01*
X158761200Y-96639050D01*
X158761200Y-96151550D01*
X158762374Y-96127658D01*
X158765884Y-96103997D01*
X158771696Y-96080793D01*
X158779754Y-96058271D01*
X158789982Y-96036647D01*
X158802279Y-96016130D01*
X158816529Y-95996917D01*
X158832593Y-95979193D01*
X158850317Y-95963129D01*
X158869530Y-95948879D01*
X158890047Y-95936582D01*
X158911671Y-95926354D01*
X158934193Y-95918296D01*
X158957397Y-95912484D01*
X158981058Y-95908974D01*
X159004950Y-95907800D01*
X159917450Y-95907800D01*
X159941342Y-95908974D01*
X159941342Y-95908974D01*
G37*
D13*
X159461200Y-96395300D03*
D12*
G36*
X138469042Y-91884174D02*
G01*
X138492703Y-91887684D01*
X138515907Y-91893496D01*
X138538429Y-91901554D01*
X138560053Y-91911782D01*
X138580570Y-91924079D01*
X138599783Y-91938329D01*
X138617507Y-91954393D01*
X138633571Y-91972117D01*
X138647821Y-91991330D01*
X138660118Y-92011847D01*
X138670346Y-92033471D01*
X138678404Y-92055993D01*
X138684216Y-92079197D01*
X138687726Y-92102858D01*
X138688900Y-92126750D01*
X138688900Y-93039250D01*
X138687726Y-93063142D01*
X138684216Y-93086803D01*
X138678404Y-93110007D01*
X138670346Y-93132529D01*
X138660118Y-93154153D01*
X138647821Y-93174670D01*
X138633571Y-93193883D01*
X138617507Y-93211607D01*
X138599783Y-93227671D01*
X138580570Y-93241921D01*
X138560053Y-93254218D01*
X138538429Y-93264446D01*
X138515907Y-93272504D01*
X138492703Y-93278316D01*
X138469042Y-93281826D01*
X138445150Y-93283000D01*
X137957650Y-93283000D01*
X137933758Y-93281826D01*
X137910097Y-93278316D01*
X137886893Y-93272504D01*
X137864371Y-93264446D01*
X137842747Y-93254218D01*
X137822230Y-93241921D01*
X137803017Y-93227671D01*
X137785293Y-93211607D01*
X137769229Y-93193883D01*
X137754979Y-93174670D01*
X137742682Y-93154153D01*
X137732454Y-93132529D01*
X137724396Y-93110007D01*
X137718584Y-93086803D01*
X137715074Y-93063142D01*
X137713900Y-93039250D01*
X137713900Y-92126750D01*
X137715074Y-92102858D01*
X137718584Y-92079197D01*
X137724396Y-92055993D01*
X137732454Y-92033471D01*
X137742682Y-92011847D01*
X137754979Y-91991330D01*
X137769229Y-91972117D01*
X137785293Y-91954393D01*
X137803017Y-91938329D01*
X137822230Y-91924079D01*
X137842747Y-91911782D01*
X137864371Y-91901554D01*
X137886893Y-91893496D01*
X137910097Y-91887684D01*
X137933758Y-91884174D01*
X137957650Y-91883000D01*
X138445150Y-91883000D01*
X138469042Y-91884174D01*
X138469042Y-91884174D01*
G37*
D13*
X138201400Y-92583000D03*
D12*
G36*
X136594042Y-91884174D02*
G01*
X136617703Y-91887684D01*
X136640907Y-91893496D01*
X136663429Y-91901554D01*
X136685053Y-91911782D01*
X136705570Y-91924079D01*
X136724783Y-91938329D01*
X136742507Y-91954393D01*
X136758571Y-91972117D01*
X136772821Y-91991330D01*
X136785118Y-92011847D01*
X136795346Y-92033471D01*
X136803404Y-92055993D01*
X136809216Y-92079197D01*
X136812726Y-92102858D01*
X136813900Y-92126750D01*
X136813900Y-93039250D01*
X136812726Y-93063142D01*
X136809216Y-93086803D01*
X136803404Y-93110007D01*
X136795346Y-93132529D01*
X136785118Y-93154153D01*
X136772821Y-93174670D01*
X136758571Y-93193883D01*
X136742507Y-93211607D01*
X136724783Y-93227671D01*
X136705570Y-93241921D01*
X136685053Y-93254218D01*
X136663429Y-93264446D01*
X136640907Y-93272504D01*
X136617703Y-93278316D01*
X136594042Y-93281826D01*
X136570150Y-93283000D01*
X136082650Y-93283000D01*
X136058758Y-93281826D01*
X136035097Y-93278316D01*
X136011893Y-93272504D01*
X135989371Y-93264446D01*
X135967747Y-93254218D01*
X135947230Y-93241921D01*
X135928017Y-93227671D01*
X135910293Y-93211607D01*
X135894229Y-93193883D01*
X135879979Y-93174670D01*
X135867682Y-93154153D01*
X135857454Y-93132529D01*
X135849396Y-93110007D01*
X135843584Y-93086803D01*
X135840074Y-93063142D01*
X135838900Y-93039250D01*
X135838900Y-92126750D01*
X135840074Y-92102858D01*
X135843584Y-92079197D01*
X135849396Y-92055993D01*
X135857454Y-92033471D01*
X135867682Y-92011847D01*
X135879979Y-91991330D01*
X135894229Y-91972117D01*
X135910293Y-91954393D01*
X135928017Y-91938329D01*
X135947230Y-91924079D01*
X135967747Y-91911782D01*
X135989371Y-91901554D01*
X136011893Y-91893496D01*
X136035097Y-91887684D01*
X136058758Y-91884174D01*
X136082650Y-91883000D01*
X136570150Y-91883000D01*
X136594042Y-91884174D01*
X136594042Y-91884174D01*
G37*
D13*
X136326400Y-92583000D03*
D17*
X139674600Y-92532200D03*
X133629400Y-95504000D03*
X142036800Y-102311200D03*
X144500600Y-97993200D03*
X139700000Y-93954600D03*
X143611600Y-99314000D03*
X155829000Y-93776800D03*
D19*
X162433000Y-102489000D02*
X162991800Y-101930200D01*
X160070800Y-98879900D02*
X159461200Y-98270300D01*
X160070800Y-102666800D02*
X160070800Y-98879900D01*
X141892800Y-102167200D02*
X142036800Y-102311200D01*
X141892800Y-99974400D02*
X141892800Y-102167200D01*
X143017800Y-99974400D02*
X143348000Y-100304600D01*
X141892800Y-99974400D02*
X143017800Y-99974400D01*
X143348000Y-100304600D02*
X144221200Y-100304600D01*
X144500600Y-100025200D02*
X144500600Y-97993200D01*
X144221200Y-100304600D02*
X144500600Y-100025200D01*
X160070800Y-98879900D02*
X160070800Y-98496267D01*
X162255200Y-102666800D02*
X162991800Y-101930200D01*
X160070800Y-102666800D02*
X162255200Y-102666800D01*
X159209500Y-98018600D02*
X159461200Y-98270300D01*
X153212800Y-98018600D02*
X159209500Y-98018600D01*
X139623800Y-92583000D02*
X139674600Y-92532200D01*
X138201400Y-92583000D02*
X139623800Y-92583000D01*
X138247600Y-94504200D02*
X138247600Y-95123000D01*
X136326400Y-92583000D02*
X138247600Y-94504200D01*
X138247600Y-95123000D02*
X138760200Y-95123000D01*
X143002000Y-98704400D02*
X143611600Y-99314000D01*
X141892800Y-98704400D02*
X143002000Y-98704400D01*
X132765800Y-92583000D02*
X136326400Y-92583000D01*
X132334000Y-93014800D02*
X132765800Y-92583000D01*
X132334000Y-93692800D02*
X132334000Y-93014800D01*
X130810000Y-96316800D02*
X130810000Y-95216800D01*
X130810000Y-95216800D02*
X132334000Y-93692800D01*
X138531600Y-95123000D02*
X139700000Y-93954600D01*
X138247600Y-95123000D02*
X138531600Y-95123000D01*
X159461200Y-95807800D02*
X159461200Y-96395300D01*
X159461200Y-93622100D02*
X159461200Y-95807800D01*
X160297100Y-92786200D02*
X159461200Y-93622100D01*
X148167800Y-96164400D02*
X147431200Y-96901000D01*
X149292800Y-96164400D02*
X148167800Y-96164400D01*
X147431200Y-96901000D02*
X147370800Y-96901000D01*
X147370800Y-96901000D02*
X146024600Y-98247200D01*
X146024600Y-102433600D02*
X146638800Y-103047800D01*
X146024600Y-98247200D02*
X146024600Y-98348800D01*
X146024600Y-98348800D02*
X146024600Y-102433600D01*
X141403100Y-93192600D02*
X141990600Y-93192600D01*
X130699800Y-99052810D02*
X130567995Y-98921005D01*
X131131599Y-99484609D02*
X130699800Y-99052810D01*
X131929800Y-97737000D02*
X130810000Y-98856800D01*
X131929800Y-97737000D02*
X131929800Y-97660800D01*
X131929800Y-97660800D02*
X132232400Y-97358200D01*
X132966800Y-98092600D02*
X134132000Y-98092600D01*
X132232400Y-97358200D02*
X132966800Y-98092600D01*
X132232400Y-96901000D02*
X133629400Y-95504000D01*
X132232400Y-97358200D02*
X132232400Y-96901000D01*
X141292800Y-98704400D02*
X141892800Y-98704400D01*
X141590300Y-99006900D02*
X141892800Y-98704400D01*
X139522200Y-99006900D02*
X141590300Y-99006900D01*
X137532000Y-98092600D02*
X136632000Y-98092600D01*
X139522200Y-99006900D02*
X138446300Y-99006900D01*
X138446300Y-99006900D02*
X137532000Y-98092600D01*
X146024600Y-98018600D02*
X146024600Y-98348800D01*
X144840399Y-96834399D02*
X146024600Y-98018600D01*
X140319199Y-96834399D02*
X140319199Y-94503801D01*
X140319199Y-96834399D02*
X144840399Y-96834399D01*
X140173001Y-96834399D02*
X140319199Y-96834399D01*
X141403100Y-93419900D02*
X141403100Y-93192600D01*
X140319199Y-94503801D02*
X141403100Y-93419900D01*
X162991800Y-93210200D02*
X162991800Y-94310200D01*
X162567800Y-92786200D02*
X162991800Y-93210200D01*
X160297100Y-92786200D02*
X162567800Y-92786200D01*
X138910300Y-96520000D02*
X139522200Y-97131900D01*
X136372600Y-95123000D02*
X137769600Y-96520000D01*
X137769600Y-96520000D02*
X138910300Y-96520000D01*
X157837900Y-96395300D02*
X159461200Y-96395300D01*
X156032200Y-94589600D02*
X157837900Y-96395300D01*
X155270200Y-94589600D02*
X156032200Y-94589600D01*
X149892800Y-96164400D02*
X151035800Y-95021400D01*
X149292800Y-96164400D02*
X149892800Y-96164400D01*
X151035800Y-95021400D02*
X151035800Y-95014000D01*
X151035800Y-95014000D02*
X151993600Y-94056200D01*
X151993600Y-94056200D02*
X154736800Y-94056200D01*
X154736800Y-94056200D02*
X155270200Y-94589600D01*
X158068800Y-102793800D02*
X158195800Y-102666800D01*
X157814800Y-103047800D02*
X158195800Y-102666800D01*
X148513800Y-103047800D02*
X157814800Y-103047800D01*
X140767800Y-97434400D02*
X141892800Y-97434400D01*
X135382000Y-99942600D02*
X135432800Y-99891800D01*
X135382000Y-100992600D02*
X135382000Y-99942600D01*
X135432800Y-97256798D02*
X136017198Y-96672400D01*
X135432800Y-99891800D02*
X135432800Y-97256798D01*
X137285590Y-96672400D02*
X137717390Y-97104200D01*
X136017198Y-96672400D02*
X137285590Y-96672400D01*
X137717390Y-97104200D02*
X137717390Y-97356790D01*
X137717390Y-97356790D02*
X138455400Y-98094800D01*
X140724050Y-97434400D02*
X140767800Y-97434400D01*
X140063650Y-98094800D02*
X140724050Y-97434400D01*
X138455400Y-98094800D02*
X140063650Y-98094800D01*
X158371300Y-92837000D02*
X158422100Y-92786200D01*
X157865863Y-92229963D02*
X158422100Y-92786200D01*
X157397090Y-91761190D02*
X157865863Y-92229963D01*
X151116910Y-91761190D02*
X157397090Y-91761190D01*
X149787100Y-93091000D02*
X151116910Y-91761190D01*
X149199600Y-93091000D02*
X149787100Y-93091000D01*
X141892800Y-95165400D02*
X143865600Y-93192600D01*
X141892800Y-96164400D02*
X141892800Y-95165400D01*
X143865600Y-93992600D02*
X143865600Y-93192600D01*
X144157800Y-94284800D02*
X143865600Y-93992600D01*
X146737100Y-93091000D02*
X146610100Y-93218000D01*
X147324600Y-93091000D02*
X146737100Y-93091000D01*
X146608800Y-93218000D02*
X145542000Y-94284800D01*
X146610100Y-93218000D02*
X146608800Y-93218000D01*
X145542000Y-94284800D02*
X144157800Y-94284800D01*
X154889200Y-92837000D02*
X155829000Y-93776800D01*
X152349200Y-92837000D02*
X154889200Y-92837000D01*
X145542000Y-94284800D02*
X150901400Y-94284800D01*
X150901400Y-94284800D02*
X152349200Y-92837000D01*
M02*
