G04 #@! TF.GenerationSoftware,KiCad,Pcbnew,(5.1.4)-1*
G04 #@! TF.CreationDate,2020-06-01T20:19:03-04:00*
G04 #@! TF.ProjectId,UniversalLM393,556e6976-6572-4736-916c-4c4d3339332e,rev?*
G04 #@! TF.SameCoordinates,Original*
G04 #@! TF.FileFunction,Legend,Top*
G04 #@! TF.FilePolarity,Positive*
%FSLAX46Y46*%
G04 Gerber Fmt 4.6, Leading zero omitted, Abs format (unit mm)*
G04 Created by KiCad (PCBNEW (5.1.4)-1) date 2020-06-01 20:19:03*
%MOMM*%
%LPD*%
G04 APERTURE LIST*
%ADD10C,0.150000*%
%ADD11C,0.120000*%
G04 APERTURE END LIST*
D10*
X169003598Y-97444917D02*
X169003976Y-97540155D01*
X168956735Y-97635581D01*
X168909306Y-97683389D01*
X168814257Y-97731385D01*
X168623972Y-97779760D01*
X168385878Y-97780705D01*
X168195215Y-97733842D01*
X168099788Y-97686601D01*
X168051981Y-97639171D01*
X168003984Y-97544123D01*
X168003606Y-97448886D01*
X168050847Y-97353459D01*
X168098277Y-97305652D01*
X168193325Y-97257655D01*
X168383611Y-97209281D01*
X168621704Y-97208336D01*
X168812368Y-97255199D01*
X168907794Y-97302439D01*
X168955602Y-97349869D01*
X169003598Y-97444917D01*
X168101867Y-98210406D02*
X168054437Y-98258214D01*
X168006630Y-98210784D01*
X168054059Y-98162977D01*
X168101867Y-98210406D01*
X168006630Y-98210784D01*
X168913085Y-98635762D02*
X168960893Y-98683192D01*
X169008889Y-98778240D01*
X169009834Y-99016334D01*
X168962593Y-99111760D01*
X168915164Y-99159567D01*
X168820115Y-99207564D01*
X168724878Y-99207942D01*
X168581833Y-99160890D01*
X168008141Y-98591734D01*
X168010598Y-99210776D01*
X169014180Y-100111563D02*
X169012291Y-99635376D01*
X168535915Y-99589647D01*
X168583723Y-99637077D01*
X168631719Y-99732125D01*
X168632664Y-99970219D01*
X168585423Y-100065645D01*
X168537993Y-100113453D01*
X168442945Y-100161449D01*
X168204852Y-100162394D01*
X168109425Y-100115153D01*
X168061618Y-100067724D01*
X168013621Y-99972675D01*
X168012676Y-99734582D01*
X168059917Y-99639156D01*
X168107347Y-99591348D01*
X168920644Y-100540509D02*
X168968451Y-100587939D01*
X169016448Y-100682987D01*
X169017393Y-100921080D01*
X168970152Y-101016507D01*
X168922722Y-101064314D01*
X168827674Y-101112311D01*
X168732436Y-101112689D01*
X168589391Y-101065637D01*
X168015700Y-100496481D01*
X168018156Y-101115523D01*
X169020605Y-101730598D02*
X169020983Y-101825835D01*
X168973742Y-101921262D01*
X168926312Y-101969069D01*
X168831264Y-102017066D01*
X168640978Y-102065440D01*
X168402885Y-102066385D01*
X168212221Y-102019522D01*
X168116795Y-101972282D01*
X168068987Y-101924852D01*
X168020991Y-101829803D01*
X168020613Y-101734566D01*
X168067854Y-101639140D01*
X168115283Y-101591332D01*
X168210332Y-101543336D01*
X168400617Y-101494961D01*
X168638711Y-101494016D01*
X168829374Y-101540879D01*
X168924801Y-101588120D01*
X168972608Y-101635550D01*
X169020605Y-101730598D01*
X168026660Y-103258364D02*
X168693321Y-103255718D01*
X169026652Y-103254395D02*
X168978844Y-103206966D01*
X168931414Y-103254773D01*
X168979222Y-103302203D01*
X169026652Y-103254395D01*
X168931414Y-103254773D01*
X168695211Y-103731905D02*
X168028549Y-103734550D01*
X168599973Y-103732283D02*
X168647781Y-103779713D01*
X168695778Y-103874761D01*
X168696344Y-104017617D01*
X168649104Y-104113043D01*
X168554055Y-104161040D01*
X168030250Y-104163118D01*
D11*
X167186238Y-97513610D02*
X167211638Y-103914410D01*
X155143200Y-97561400D02*
X167772654Y-97511283D01*
X155168600Y-103962200D02*
X167798054Y-103912083D01*
X167211638Y-103914410D02*
X166620752Y-102790242D01*
X167211638Y-103914410D02*
X167793584Y-102785588D01*
X167186238Y-97513610D02*
X166604292Y-98642432D01*
X167186238Y-97513610D02*
X167777124Y-98637778D01*
D10*
X137743419Y-111268021D02*
X137838649Y-111269219D01*
X137933281Y-111318032D01*
X137980297Y-111366246D01*
X138026714Y-111462075D01*
X138071934Y-111653136D01*
X138068939Y-111891212D01*
X138018928Y-112081074D01*
X137970115Y-112175706D01*
X137921901Y-112222722D01*
X137826071Y-112269140D01*
X137730841Y-112267942D01*
X137636209Y-112219129D01*
X137589193Y-112170914D01*
X137542775Y-112075085D01*
X137497556Y-111884025D01*
X137500551Y-111645948D01*
X137550562Y-111456086D01*
X137599375Y-111361455D01*
X137647589Y-111314438D01*
X137743419Y-111268021D01*
X138493883Y-112182294D02*
X138540900Y-112230508D01*
X138492685Y-112277525D01*
X138445669Y-112229310D01*
X138493883Y-112182294D01*
X138492685Y-112277525D01*
X139016453Y-112284113D02*
X139206915Y-112286509D01*
X139302744Y-112240091D01*
X139350958Y-112193075D01*
X139447986Y-112051427D01*
X139497997Y-111861565D01*
X139502788Y-111480642D01*
X139456371Y-111384813D01*
X139409354Y-111336599D01*
X139314723Y-111287786D01*
X139124262Y-111285390D01*
X139028432Y-111331807D01*
X138980218Y-111378824D01*
X138931405Y-111473455D01*
X138928410Y-111711532D01*
X138974828Y-111807361D01*
X139021844Y-111855575D01*
X139116476Y-111904389D01*
X139306937Y-111906784D01*
X139402766Y-111860367D01*
X139450980Y-111813350D01*
X139499793Y-111718719D01*
X140409874Y-111301561D02*
X139933721Y-111295572D01*
X139880117Y-111771126D01*
X139928331Y-111724109D01*
X140024161Y-111677692D01*
X140262237Y-111680687D01*
X140356869Y-111729500D01*
X140403885Y-111777714D01*
X140450302Y-111873543D01*
X140447308Y-112111620D01*
X140398494Y-112206251D01*
X140350280Y-112253268D01*
X140254451Y-112299685D01*
X140016374Y-112296691D01*
X139921743Y-112247877D01*
X139874726Y-112199663D01*
X141310372Y-111646248D02*
X141301987Y-112312862D01*
X141077087Y-111262331D02*
X140830027Y-111973565D01*
X141449025Y-111981352D01*
X142349523Y-112326038D02*
X141778140Y-112318851D01*
X142063831Y-112322445D02*
X142076409Y-111322524D01*
X141979382Y-111464172D01*
X141882953Y-111558204D01*
X141787124Y-111604622D01*
X143539905Y-112341012D02*
X143548290Y-111674398D01*
X143552483Y-111341091D02*
X143504269Y-111388107D01*
X143551285Y-111436321D01*
X143599499Y-111389305D01*
X143552483Y-111341091D01*
X143551285Y-111436321D01*
X144024443Y-111680387D02*
X144016058Y-112347001D01*
X144023245Y-111775618D02*
X144071459Y-111728601D01*
X144167289Y-111682184D01*
X144310135Y-111683981D01*
X144404766Y-111732794D01*
X144451184Y-111828623D01*
X144444595Y-112352391D01*
D11*
X128898352Y-110434324D02*
X153129952Y-110739124D01*
X129057400Y-97790000D02*
X128890976Y-111020698D01*
X153289000Y-98094800D02*
X153122576Y-111325498D01*
X153129952Y-110739124D02*
X151996162Y-111311330D01*
X153129952Y-110739124D02*
X152010913Y-110138581D01*
X128898352Y-110434324D02*
X130017391Y-111034867D01*
X128898352Y-110434324D02*
X130032142Y-109862118D01*
D10*
X171349219Y-94367717D02*
X171349602Y-94462955D01*
X171302367Y-94558384D01*
X171254940Y-94606194D01*
X171159894Y-94654196D01*
X170969611Y-94702581D01*
X170731518Y-94703539D01*
X170540851Y-94656687D01*
X170445422Y-94609452D01*
X170397612Y-94562025D01*
X170349610Y-94466979D01*
X170349227Y-94371742D01*
X170396462Y-94276313D01*
X170443889Y-94228502D01*
X170538935Y-94180500D01*
X170729218Y-94132115D01*
X170967311Y-94131157D01*
X171157978Y-94178009D01*
X171253407Y-94225245D01*
X171301217Y-94272672D01*
X171349219Y-94367717D01*
X170447530Y-95133257D02*
X170400103Y-95181067D01*
X170352293Y-95133640D01*
X170399720Y-95085830D01*
X170447530Y-95133257D01*
X170352293Y-95133640D01*
X171022595Y-96035712D02*
X170355934Y-96038395D01*
X171402586Y-95796086D02*
X170687348Y-95560867D01*
X170689839Y-96179909D01*
X170358233Y-96609819D02*
X170359000Y-96800293D01*
X170407002Y-96895339D01*
X170454812Y-96942766D01*
X170598051Y-97037429D01*
X170788717Y-97084281D01*
X171169667Y-97082748D01*
X171264712Y-97034746D01*
X171312140Y-96986936D01*
X171359375Y-96891507D01*
X171358608Y-96701032D01*
X171310607Y-96605986D01*
X171262796Y-96558559D01*
X171167367Y-96511324D01*
X170929274Y-96512282D01*
X170834228Y-96560284D01*
X170786801Y-96608094D01*
X170739566Y-96703523D01*
X170740332Y-96893998D01*
X170788334Y-96989043D01*
X170836145Y-97036470D01*
X170931573Y-97083706D01*
X171361483Y-97415312D02*
X171364166Y-98081973D01*
X170362449Y-97657429D01*
X171366465Y-98653397D02*
X171366848Y-98748634D01*
X171319613Y-98844063D01*
X171272186Y-98891874D01*
X171177140Y-98939876D01*
X170986857Y-98988261D01*
X170748764Y-98989219D01*
X170558098Y-98942367D01*
X170462669Y-98895131D01*
X170414858Y-98847704D01*
X170366856Y-98752658D01*
X170366473Y-98657421D01*
X170413709Y-98561992D01*
X170461136Y-98514182D01*
X170556181Y-98466180D01*
X170746464Y-98417795D01*
X170984558Y-98416837D01*
X171175224Y-98463689D01*
X171270653Y-98510924D01*
X171318463Y-98558351D01*
X171366465Y-98653397D01*
X170372605Y-100181218D02*
X171039266Y-100178536D01*
X171372597Y-100177194D02*
X171324787Y-100129767D01*
X171277360Y-100177577D01*
X171325170Y-100225005D01*
X171372597Y-100177194D01*
X171277360Y-100177577D01*
X171041183Y-100654722D02*
X170374521Y-100657405D01*
X170945945Y-100655105D02*
X170993756Y-100702533D01*
X171041758Y-100797578D01*
X171042332Y-100940434D01*
X170995097Y-101035863D01*
X170900051Y-101083865D01*
X170376246Y-101085973D01*
D11*
X169519341Y-91325011D02*
X169570141Y-103948811D01*
X166192200Y-91338400D02*
X170105757Y-91322651D01*
X166243000Y-103962200D02*
X170156557Y-103946451D01*
X169570141Y-103948811D02*
X168979192Y-102824676D01*
X169570141Y-103948811D02*
X170152024Y-102819957D01*
X169519341Y-91325011D02*
X168937458Y-92453865D01*
X169519341Y-91325011D02*
X170110290Y-92449146D01*
X137902000Y-97672600D02*
X137902000Y-101412600D01*
X132862000Y-97672600D02*
X132862000Y-101412600D01*
X136622000Y-101412600D02*
X137902000Y-101412600D01*
X132862000Y-101412600D02*
X134142000Y-101412600D01*
X135022000Y-97672600D02*
X135742000Y-97672600D01*
X132862000Y-97672600D02*
X133242000Y-97672600D01*
X137522000Y-97672600D02*
X137902000Y-97672600D01*
X138812200Y-97810822D02*
X138812200Y-98327978D01*
X140232200Y-97810822D02*
X140232200Y-98327978D01*
X130810000Y-94986800D02*
X132140000Y-94986800D01*
X132140000Y-94986800D02*
X132140000Y-96316800D01*
X132140000Y-97586800D02*
X132140000Y-100186800D01*
X129480000Y-100186800D02*
X132140000Y-100186800D01*
X129480000Y-97586800D02*
X129480000Y-100186800D01*
X129480000Y-97586800D02*
X132140000Y-97586800D01*
D10*
X142842800Y-95519400D02*
X141092800Y-95519400D01*
X142842800Y-101274400D02*
X148342800Y-101274400D01*
X142842800Y-94864400D02*
X148342800Y-94864400D01*
X142842800Y-101274400D02*
X142842800Y-100524400D01*
X148342800Y-101274400D02*
X148342800Y-100524400D01*
X148342800Y-94864400D02*
X148342800Y-95614400D01*
X142842800Y-94864400D02*
X142842800Y-95519400D01*
D11*
X148520678Y-92381000D02*
X148003522Y-92381000D01*
X148520678Y-93801000D02*
X148003522Y-93801000D01*
X147317722Y-103757800D02*
X147834878Y-103757800D01*
X147317722Y-102337800D02*
X147834878Y-102337800D01*
X142669522Y-93902600D02*
X143186678Y-93902600D01*
X142669522Y-92482600D02*
X143186678Y-92482600D01*
X137051522Y-95833000D02*
X137568678Y-95833000D01*
X137051522Y-94413000D02*
X137568678Y-94413000D01*
X161661800Y-92980200D02*
X162991800Y-92980200D01*
X161661800Y-94310200D02*
X161661800Y-92980200D01*
X161661800Y-95580200D02*
X164321800Y-95580200D01*
X164321800Y-95580200D02*
X164321800Y-103260200D01*
X161661800Y-95580200D02*
X161661800Y-103260200D01*
X161661800Y-103260200D02*
X164321800Y-103260200D01*
X160818300Y-101706800D02*
X158133300Y-101706800D01*
X160818300Y-103626800D02*
X160818300Y-101706800D01*
X158133300Y-103626800D02*
X160818300Y-103626800D01*
X157674600Y-93746200D02*
X160359600Y-93746200D01*
X157674600Y-91826200D02*
X157674600Y-93746200D01*
X160359600Y-91826200D02*
X157674600Y-91826200D01*
X158751200Y-97074222D02*
X158751200Y-97591378D01*
X160171200Y-97074222D02*
X160171200Y-97591378D01*
X137005322Y-93293000D02*
X137522478Y-93293000D01*
X137005322Y-91873000D02*
X137522478Y-91873000D01*
D10*
X134786761Y-96494980D02*
X134453428Y-96018790D01*
X134215333Y-96494980D02*
X134215333Y-95494980D01*
X134596285Y-95494980D01*
X134691523Y-95542600D01*
X134739142Y-95590219D01*
X134786761Y-95685457D01*
X134786761Y-95828314D01*
X134739142Y-95923552D01*
X134691523Y-95971171D01*
X134596285Y-96018790D01*
X134215333Y-96018790D01*
X135072476Y-95494980D02*
X135405809Y-96494980D01*
X135739142Y-95494980D01*
X136596285Y-96494980D02*
X136024857Y-96494980D01*
X136310571Y-96494980D02*
X136310571Y-95494980D01*
X136215333Y-95637838D01*
X136120095Y-95733076D01*
X136024857Y-95780695D01*
X141624580Y-98236066D02*
X141148390Y-98569400D01*
X141624580Y-98807495D02*
X140624580Y-98807495D01*
X140624580Y-98426542D01*
X140672200Y-98331304D01*
X140719819Y-98283685D01*
X140815057Y-98236066D01*
X140957914Y-98236066D01*
X141053152Y-98283685D01*
X141100771Y-98331304D01*
X141148390Y-98426542D01*
X141148390Y-98807495D01*
X140624580Y-97331304D02*
X140624580Y-97807495D01*
X141100771Y-97855114D01*
X141053152Y-97807495D01*
X141005533Y-97712257D01*
X141005533Y-97474161D01*
X141053152Y-97378923D01*
X141100771Y-97331304D01*
X141196009Y-97283685D01*
X141434104Y-97283685D01*
X141529342Y-97331304D01*
X141576961Y-97378923D01*
X141624580Y-97474161D01*
X141624580Y-97712257D01*
X141576961Y-97807495D01*
X141529342Y-97855114D01*
X130476666Y-92999180D02*
X130476666Y-93713466D01*
X130429047Y-93856323D01*
X130333809Y-93951561D01*
X130190952Y-93999180D01*
X130095714Y-93999180D01*
X131476666Y-93999180D02*
X130905238Y-93999180D01*
X131190952Y-93999180D02*
X131190952Y-92999180D01*
X131095714Y-93142038D01*
X131000476Y-93237276D01*
X130905238Y-93284895D01*
X144830895Y-93391780D02*
X144830895Y-94201304D01*
X144878514Y-94296542D01*
X144926133Y-94344161D01*
X145021371Y-94391780D01*
X145211847Y-94391780D01*
X145307085Y-94344161D01*
X145354704Y-94296542D01*
X145402323Y-94201304D01*
X145402323Y-93391780D01*
X146402323Y-94391780D02*
X145830895Y-94391780D01*
X146116609Y-94391780D02*
X146116609Y-93391780D01*
X146021371Y-93534638D01*
X145926133Y-93629876D01*
X145830895Y-93677495D01*
X148095433Y-95193380D02*
X147762100Y-94717190D01*
X147524004Y-95193380D02*
X147524004Y-94193380D01*
X147904957Y-94193380D01*
X148000195Y-94241000D01*
X148047814Y-94288619D01*
X148095433Y-94383857D01*
X148095433Y-94526714D01*
X148047814Y-94621952D01*
X148000195Y-94669571D01*
X147904957Y-94717190D01*
X147524004Y-94717190D01*
X148952576Y-94526714D02*
X148952576Y-95193380D01*
X148714480Y-94145761D02*
X148476385Y-94860047D01*
X149095433Y-94860047D01*
X147409633Y-101850180D02*
X147076300Y-101373990D01*
X146838204Y-101850180D02*
X146838204Y-100850180D01*
X147219157Y-100850180D01*
X147314395Y-100897800D01*
X147362014Y-100945419D01*
X147409633Y-101040657D01*
X147409633Y-101183514D01*
X147362014Y-101278752D01*
X147314395Y-101326371D01*
X147219157Y-101373990D01*
X146838204Y-101373990D01*
X147742966Y-100850180D02*
X148362014Y-100850180D01*
X148028680Y-101231133D01*
X148171538Y-101231133D01*
X148266776Y-101278752D01*
X148314395Y-101326371D01*
X148362014Y-101421609D01*
X148362014Y-101659704D01*
X148314395Y-101754942D01*
X148266776Y-101802561D01*
X148171538Y-101850180D01*
X147885823Y-101850180D01*
X147790585Y-101802561D01*
X147742966Y-101754942D01*
X142761433Y-91994980D02*
X142428100Y-91518790D01*
X142190004Y-91994980D02*
X142190004Y-90994980D01*
X142570957Y-90994980D01*
X142666195Y-91042600D01*
X142713814Y-91090219D01*
X142761433Y-91185457D01*
X142761433Y-91328314D01*
X142713814Y-91423552D01*
X142666195Y-91471171D01*
X142570957Y-91518790D01*
X142190004Y-91518790D01*
X143142385Y-91090219D02*
X143190004Y-91042600D01*
X143285242Y-90994980D01*
X143523338Y-90994980D01*
X143618576Y-91042600D01*
X143666195Y-91090219D01*
X143713814Y-91185457D01*
X143713814Y-91280695D01*
X143666195Y-91423552D01*
X143094766Y-91994980D01*
X143713814Y-91994980D01*
X137143433Y-93925380D02*
X136810100Y-93449190D01*
X136572004Y-93925380D02*
X136572004Y-92925380D01*
X136952957Y-92925380D01*
X137048195Y-92973000D01*
X137095814Y-93020619D01*
X137143433Y-93115857D01*
X137143433Y-93258714D01*
X137095814Y-93353952D01*
X137048195Y-93401571D01*
X136952957Y-93449190D01*
X136572004Y-93449190D01*
X138095814Y-93925380D02*
X137524385Y-93925380D01*
X137810100Y-93925380D02*
X137810100Y-92925380D01*
X137714861Y-93068238D01*
X137619623Y-93163476D01*
X137524385Y-93211095D01*
X162658466Y-91432580D02*
X162658466Y-92146866D01*
X162610847Y-92289723D01*
X162515609Y-92384961D01*
X162372752Y-92432580D01*
X162277514Y-92432580D01*
X163087038Y-91527819D02*
X163134657Y-91480200D01*
X163229895Y-91432580D01*
X163467990Y-91432580D01*
X163563228Y-91480200D01*
X163610847Y-91527819D01*
X163658466Y-91623057D01*
X163658466Y-91718295D01*
X163610847Y-91861152D01*
X163039419Y-92432580D01*
X163658466Y-92432580D01*
X152501695Y-94488380D02*
X152501695Y-93488380D01*
X152501695Y-93964571D02*
X153073123Y-93964571D01*
X153073123Y-94488380D02*
X153073123Y-93488380D01*
X154073123Y-94488380D02*
X153501695Y-94488380D01*
X153787409Y-94488380D02*
X153787409Y-93488380D01*
X153692171Y-93631238D01*
X153596933Y-93726476D01*
X153501695Y-93774095D01*
X158395204Y-104769180D02*
X158395204Y-103769180D01*
X158633300Y-103769180D01*
X158776157Y-103816800D01*
X158871395Y-103912038D01*
X158919014Y-104007276D01*
X158966633Y-104197752D01*
X158966633Y-104340609D01*
X158919014Y-104531085D01*
X158871395Y-104626323D01*
X158776157Y-104721561D01*
X158633300Y-104769180D01*
X158395204Y-104769180D01*
X159347585Y-103864419D02*
X159395204Y-103816800D01*
X159490442Y-103769180D01*
X159728538Y-103769180D01*
X159823776Y-103816800D01*
X159871395Y-103864419D01*
X159919014Y-103959657D01*
X159919014Y-104054895D01*
X159871395Y-104197752D01*
X159299966Y-104769180D01*
X159919014Y-104769180D01*
X158621504Y-91588580D02*
X158621504Y-90588580D01*
X158859600Y-90588580D01*
X159002457Y-90636200D01*
X159097695Y-90731438D01*
X159145314Y-90826676D01*
X159192933Y-91017152D01*
X159192933Y-91160009D01*
X159145314Y-91350485D01*
X159097695Y-91445723D01*
X159002457Y-91540961D01*
X158859600Y-91588580D01*
X158621504Y-91588580D01*
X160145314Y-91588580D02*
X159573885Y-91588580D01*
X159859600Y-91588580D02*
X159859600Y-90588580D01*
X159764361Y-90731438D01*
X159669123Y-90826676D01*
X159573885Y-90874295D01*
X161468342Y-97499466D02*
X161515961Y-97547085D01*
X161563580Y-97689942D01*
X161563580Y-97785180D01*
X161515961Y-97928038D01*
X161420723Y-98023276D01*
X161325485Y-98070895D01*
X161135009Y-98118514D01*
X160992152Y-98118514D01*
X160801676Y-98070895D01*
X160706438Y-98023276D01*
X160611200Y-97928038D01*
X160563580Y-97785180D01*
X160563580Y-97689942D01*
X160611200Y-97547085D01*
X160658819Y-97499466D01*
X160658819Y-97118514D02*
X160611200Y-97070895D01*
X160563580Y-96975657D01*
X160563580Y-96737561D01*
X160611200Y-96642323D01*
X160658819Y-96594704D01*
X160754057Y-96547085D01*
X160849295Y-96547085D01*
X160992152Y-96594704D01*
X161563580Y-97166133D01*
X161563580Y-96547085D01*
X137097233Y-91290142D02*
X137049614Y-91337761D01*
X136906757Y-91385380D01*
X136811519Y-91385380D01*
X136668661Y-91337761D01*
X136573423Y-91242523D01*
X136525804Y-91147285D01*
X136478185Y-90956809D01*
X136478185Y-90813952D01*
X136525804Y-90623476D01*
X136573423Y-90528238D01*
X136668661Y-90433000D01*
X136811519Y-90385380D01*
X136906757Y-90385380D01*
X137049614Y-90433000D01*
X137097233Y-90480619D01*
X138049614Y-91385380D02*
X137478185Y-91385380D01*
X137763900Y-91385380D02*
X137763900Y-90385380D01*
X137668661Y-90528238D01*
X137573423Y-90623476D01*
X137478185Y-90671095D01*
M02*
